# xmcd CD database file generated by Grip 3.0.5
# 
# Track frame offsets:
#       150
#       19212
#       39007
#       54955
#       72960
#       88450
#       101232
#       124920
#       136680
#       151252
#       173007
#       188112
#       201997
# 
# Disc length: 2894 seconds
# 
# Revision: 2
# Processed by: cddbd v1.4PL0 Copyright (c) Steve Scherf et al.
# Submitted via: Grip 3.0.5
# 
DISCID=ad0b4c0d
DTITLE=Geno Delafose - French Rockin' Boogie
DYEAR=1994
DGENRE=Blues
TTITLE0=French Rockin' Boogie
TTITLE1=Je ne apprecie pas ca
TTITLE2=Hey, Geno!
TTITLE3=Think It Over
TTITLE4=C'est pas la peine brailler
TTITLE5=Ris et la gres
TTITLE6=One Lie (Leads To Another)
TTITLE7=Jeunnes filles de la campagne
TTITLE8=Do the Mill
TTITLE9=JoAnn, JoAnn
TTITLE10=Tes parents ne veulent plus me voir
TTITLE11=Wedding Day Waltz
TTITLE12=Watch Your Step
EXTD=
EXTT0=
EXTT1=
EXTT2=
EXTT3=
EXTT4=
EXTT5=
EXTT6=
EXTT7=
EXTT8=
EXTT9=
EXTT10=
EXTT11=
EXTT12=
PLAYORDER=
